<svg width="173" height="40" viewBox="0 0 173 40" fill="none" xmlns="http://www.w3.org/2000/svg">
<path d="M34.1422 5.85781C30.3647 2.08031 25.3422 0 20 0C14.6578 0 9.63531 2.08031 5.85781 5.85781C2.08031 9.63531 0 14.6578 0 20C0 25.3422 2.08039 30.3646 5.85781 34.1422C9.63523 37.9198 14.6578 40 20 40C25.3422 40 30.3647 37.9197 34.1422 34.1422C37.9197 30.3647 40 25.3422 40 20C40 14.6578 37.9196 9.63539 34.1422 5.85781Z" fill="#33CC95"/>
<path d="M20.5715 8V33.1429" stroke="white" stroke-width="2" stroke-linecap="round" stroke-linejoin="round"/>
<path d="M26.2858 12.5714H17.7144C16.6535 12.5714 15.6361 12.9929 14.886 13.743C14.1358 14.4931 13.7144 15.5106 13.7144 16.5714C13.7144 17.6323 14.1358 18.6497 14.886 19.3999C15.6361 20.15 16.6535 20.5714 17.7144 20.5714H23.4287C24.4895 20.5714 25.507 20.9929 26.2571 21.743C27.0073 22.4932 27.4287 23.5106 27.4287 24.5714C27.4287 25.6323 27.0073 26.6497 26.2571 27.3999C25.507 28.15 24.4895 28.5714 23.4287 28.5714H13.7144" stroke="white" stroke-width="2" stroke-linecap="round" stroke-linejoin="round"/>
<path d="M70.0986 25.7344L71.0117 29H74.1914L69.1641 13.3594H66.4248L61.3008 29H64.4805L65.4043 25.7344H70.0986ZM66.1455 23.167L67.7891 17.4092L69.3896 23.167H66.1455ZM83 13.3594V24.1982C83 24.5635 82.9427 24.9072 82.8281 25.2295C82.7207 25.5446 82.5667 25.8167 82.3662 26.0459C82.1657 26.2751 81.9222 26.4577 81.6357 26.5938C81.3493 26.7227 81.0342 26.7871 80.6904 26.7871C80.2607 26.7871 79.8955 26.7298 79.5947 26.6152C79.2939 26.5007 79.0505 26.3252 78.8643 26.0889C78.721 25.8955 78.6136 25.6592 78.542 25.3799C78.4704 25.1006 78.4346 24.7747 78.4346 24.4023H75.4053C75.4124 25.2116 75.5449 25.917 75.8027 26.5186C76.0605 27.1201 76.4222 27.6178 76.8877 28.0117C77.346 28.4128 77.8975 28.7135 78.542 28.9141C79.1865 29.1146 79.9027 29.2148 80.6904 29.2148C81.4352 29.2148 82.1299 29.0931 82.7744 28.8496C83.4261 28.6061 83.9919 28.2624 84.4717 27.8184C84.9515 27.3743 85.3275 26.848 85.5996 26.2393C85.8789 25.6234 86.0221 24.943 86.0293 24.1982L86.0186 13.3594H83ZM92.0664 26.5615V13.3594H89.0371V29H99.3926V26.5615H92.0664ZM115.237 29H120.941C121.801 29 122.574 28.9033 123.262 28.71C123.949 28.5166 124.533 28.2266 125.013 27.8398C125.493 27.4531 125.861 26.9733 126.119 26.4004C126.377 25.8275 126.506 25.165 126.506 24.4131C126.506 24.0192 126.452 23.6396 126.345 23.2744C126.244 22.902 126.087 22.5583 125.872 22.2432C125.664 21.9495 125.407 21.6917 125.099 21.4697C124.798 21.2477 124.39 21.0651 123.874 20.9219V20.9111C124.139 20.8109 124.379 20.6891 124.594 20.5459C124.816 20.4027 125.013 20.2451 125.185 20.0732C125.5 19.7581 125.736 19.3929 125.894 18.9775C126.058 18.555 126.144 18.1074 126.151 17.6348C126.151 16.9043 126.015 16.2705 125.743 15.7334C125.478 15.1963 125.099 14.7523 124.604 14.4014C124.11 14.0505 123.512 13.7891 122.811 13.6172C122.116 13.4453 121.342 13.3594 120.49 13.3594H115.237V29ZM118.267 22.1035H121.081C121.504 22.1107 121.869 22.168 122.177 22.2754C122.485 22.3828 122.735 22.5368 122.929 22.7373C123.122 22.9307 123.262 23.167 123.348 23.4463C123.441 23.7256 123.487 24.0407 123.487 24.3916C123.487 24.7282 123.426 25.0326 123.305 25.3047C123.19 25.5768 123.018 25.8096 122.789 26.0029C122.581 26.1748 122.32 26.3109 122.005 26.4111C121.697 26.5114 121.346 26.5615 120.952 26.5615H118.267V22.1035ZM118.267 19.9229V15.8193H120.501C120.988 15.8265 121.41 15.8802 121.769 15.9805C122.134 16.0807 122.424 16.2419 122.639 16.4639C122.803 16.6214 122.925 16.8184 123.004 17.0547C123.09 17.291 123.133 17.5667 123.133 17.8818C123.133 18.1826 123.083 18.4512 122.982 18.6875C122.889 18.9238 122.753 19.1243 122.574 19.2891C122.359 19.4967 122.076 19.6543 121.726 19.7617C121.375 19.862 120.97 19.9157 120.512 19.9229H118.267ZM135.841 29H138.87V28.8174C138.72 28.5238 138.605 28.1729 138.526 27.7646C138.448 27.3564 138.408 26.8408 138.408 26.2178V21.2334C138.408 20.5602 138.283 19.9694 138.032 19.4609C137.782 18.9453 137.434 18.5192 136.99 18.1826C136.546 17.846 136.02 17.5918 135.411 17.4199C134.81 17.248 134.158 17.1621 133.456 17.1621C132.675 17.1621 131.981 17.2624 131.372 17.4629C130.771 17.6562 130.262 17.9212 129.847 18.2578C129.424 18.5944 129.102 18.9847 128.88 19.4287C128.665 19.8727 128.558 20.3418 128.558 20.8359H131.544C131.544 20.6283 131.573 20.4385 131.63 20.2666C131.694 20.0947 131.791 19.9479 131.92 19.8262C132.063 19.6901 132.249 19.5863 132.479 19.5146C132.708 19.4359 132.98 19.3965 133.295 19.3965C133.653 19.3965 133.965 19.443 134.229 19.5361C134.502 19.6221 134.727 19.7474 134.906 19.9121C135.078 20.0697 135.207 20.2594 135.293 20.4814C135.379 20.6963 135.422 20.9398 135.422 21.2119V21.8994H133.757C132.897 21.8994 132.135 21.9782 131.469 22.1357C130.81 22.2861 130.255 22.5081 129.804 22.8018C129.302 23.124 128.926 23.5358 128.676 24.0371C128.425 24.5312 128.3 25.1006 128.3 25.7451C128.3 26.2464 128.4 26.7119 128.601 27.1416C128.801 27.5641 129.08 27.9294 129.438 28.2373C129.797 28.5452 130.223 28.7852 130.717 28.957C131.218 29.1289 131.766 29.2148 132.36 29.2148C132.726 29.2148 133.066 29.179 133.381 29.1074C133.696 29.043 133.986 28.9499 134.251 28.8281C134.509 28.7135 134.745 28.5775 134.96 28.4199C135.175 28.2624 135.365 28.0941 135.529 27.915C135.565 28.1227 135.608 28.3197 135.658 28.5059C135.708 28.6921 135.769 28.8568 135.841 29ZM132.994 26.9053C132.715 26.9053 132.468 26.873 132.253 26.8086C132.045 26.737 131.87 26.6439 131.727 26.5293C131.583 26.4076 131.472 26.2607 131.394 26.0889C131.322 25.9098 131.286 25.7165 131.286 25.5088C131.286 25.2438 131.336 25.0003 131.437 24.7783C131.537 24.5492 131.691 24.3522 131.898 24.1875C132.106 24.0299 132.375 23.9082 132.704 23.8223C133.034 23.7292 133.431 23.6826 133.896 23.6826H135.422V25.6807C135.336 25.8311 135.218 25.9814 135.067 26.1318C134.917 26.2751 134.738 26.404 134.53 26.5186C134.323 26.6331 134.09 26.7262 133.832 26.7979C133.574 26.8695 133.295 26.9053 132.994 26.9053ZM141.792 29H144.789V20.7393C144.889 20.5817 145 20.4385 145.122 20.3096C145.244 20.1807 145.38 20.0697 145.53 19.9766C145.716 19.8477 145.928 19.751 146.164 19.6865C146.408 19.6221 146.673 19.5898 146.959 19.5898C147.303 19.5898 147.611 19.6257 147.883 19.6973C148.155 19.7617 148.388 19.8799 148.581 20.0518C148.774 20.2236 148.921 20.46 149.021 20.7607C149.129 21.0544 149.183 21.4303 149.183 21.8887V29H152.169V21.8457C152.169 21.0007 152.069 20.2845 151.868 19.6973C151.675 19.1029 151.403 18.6159 151.052 18.2363C150.694 17.8639 150.271 17.5918 149.784 17.4199C149.297 17.248 148.76 17.1621 148.173 17.1621C147.715 17.1621 147.281 17.2266 146.873 17.3555C146.465 17.4844 146.089 17.6706 145.745 17.9141C145.545 18.0573 145.355 18.2184 145.176 18.3975C144.997 18.5765 144.832 18.7734 144.682 18.9883L144.499 17.377H141.792V29ZM159.377 24.1982L162.675 29H166.338L161.343 22.2217L165.726 17.377H162.138L158.926 20.9004L158.023 21.9316V12.5H155.037V29H158.023V25.4551L159.377 24.1982Z" fill="white"/>
</svg>
