<svg width="173" height="40" viewBox="0 0 173 40" fill="none" xmlns="http://www.w3.org/2000/svg">
<path d="M34.1422 5.85781C30.3647 2.08031 25.3422 0 20 0C14.6578 0 9.63531 2.08031 5.85781 5.85781C2.08031 9.63531 0 14.6578 0 20C0 25.3422 2.08039 30.3646 5.85781 34.1422C9.63523 37.9198 14.6578 40 20 40C25.3422 40 30.3647 37.9197 34.1422 34.1422C37.9197 30.3647 40 25.3422 40 20C40 14.6578 37.9196 9.63539 34.1422 5.85781Z" fill="#33CC95"/>
<path d="M20.5715 8V33.1429" stroke="white" stroke-width="2" stroke-linecap="round" stroke-linejoin="round"/>
<path d="M26.2858 12.5714H17.7144C16.6535 12.5714 15.6361 12.9929 14.886 13.743C14.1358 14.4931 13.7144 15.5106 13.7144 16.5714C13.7144 17.6323 14.1358 18.6497 14.886 19.3999C15.6361 20.15 16.6535 20.5714 17.7144 20.5714H23.4287C24.4895 20.5714 25.507 20.9929 26.2571 21.743C27.0073 22.4932 27.4287 23.5106 27.4287 24.5714C27.4287 25.6323 27.0073 26.6497 26.2571 27.3999C25.507 28.15 24.4895 28.5714 23.4287 28.5714H13.7144" stroke="white" stroke-width="2" stroke-linecap="round" stroke-linejoin="round"/>
<path d="M61.0986 25.7344L62.0117 29H65.1914L60.1641 13.3594H57.4248L52.3008 29H55.4805L56.4043 25.7344H61.0986ZM57.1455 23.167L58.7891 17.4092L60.3896 23.167H57.1455ZM74 13.3594V24.1982C74 24.5635 73.9427 24.9072 73.8281 25.2295C73.7207 25.5446 73.5667 25.8167 73.3662 26.0459C73.1657 26.2751 72.9222 26.4577 72.6357 26.5938C72.3493 26.7227 72.0342 26.7871 71.6904 26.7871C71.2607 26.7871 70.8955 26.7298 70.5947 26.6152C70.2939 26.5007 70.0505 26.3252 69.8643 26.0889C69.721 25.8955 69.6136 25.6592 69.542 25.3799C69.4704 25.1006 69.4346 24.7747 69.4346 24.4023H66.4053C66.4124 25.2116 66.5449 25.917 66.8027 26.5186C67.0605 27.1201 67.4222 27.6178 67.8877 28.0117C68.346 28.4128 68.8975 28.7135 69.542 28.9141C70.1865 29.1146 70.9027 29.2148 71.6904 29.2148C72.4352 29.2148 73.1299 29.0931 73.7744 28.8496C74.4261 28.6061 74.9919 28.2624 75.4717 27.8184C75.9515 27.3743 76.3275 26.848 76.5996 26.2393C76.8789 25.6234 77.0221 24.943 77.0293 24.1982L77.0186 13.3594H74ZM83.0664 26.5615V13.3594H80.0371V29H90.3926V26.5615H83.0664ZM106.237 29H111.941C112.801 29 113.574 28.9033 114.262 28.71C114.949 28.5166 115.533 28.2266 116.013 27.8398C116.493 27.4531 116.861 26.9733 117.119 26.4004C117.377 25.8275 117.506 25.165 117.506 24.4131C117.506 24.0192 117.452 23.6396 117.345 23.2744C117.244 22.902 117.087 22.5583 116.872 22.2432C116.664 21.9495 116.407 21.6917 116.099 21.4697C115.798 21.2477 115.39 21.0651 114.874 20.9219V20.9111C115.139 20.8109 115.379 20.6891 115.594 20.5459C115.816 20.4027 116.013 20.2451 116.185 20.0732C116.5 19.7581 116.736 19.3929 116.894 18.9775C117.058 18.555 117.144 18.1074 117.151 17.6348C117.151 16.9043 117.015 16.2705 116.743 15.7334C116.478 15.1963 116.099 14.7523 115.604 14.4014C115.11 14.0505 114.512 13.7891 113.811 13.6172C113.116 13.4453 112.342 13.3594 111.49 13.3594H106.237V29ZM109.267 22.1035H112.081C112.504 22.1107 112.869 22.168 113.177 22.2754C113.485 22.3828 113.735 22.5368 113.929 22.7373C114.122 22.9307 114.262 23.167 114.348 23.4463C114.441 23.7256 114.487 24.0407 114.487 24.3916C114.487 24.7282 114.426 25.0326 114.305 25.3047C114.19 25.5768 114.018 25.8096 113.789 26.0029C113.581 26.1748 113.32 26.3109 113.005 26.4111C112.697 26.5114 112.346 26.5615 111.952 26.5615H109.267V22.1035ZM109.267 19.9229V15.8193H111.501C111.988 15.8265 112.41 15.8802 112.769 15.9805C113.134 16.0807 113.424 16.2419 113.639 16.4639C113.803 16.6214 113.925 16.8184 114.004 17.0547C114.09 17.291 114.133 17.5667 114.133 17.8818C114.133 18.1826 114.083 18.4512 113.982 18.6875C113.889 18.9238 113.753 19.1243 113.574 19.2891C113.359 19.4967 113.076 19.6543 112.726 19.7617C112.375 19.862 111.97 19.9157 111.512 19.9229H109.267ZM126.841 29H129.87V28.8174C129.72 28.5238 129.605 28.1729 129.526 27.7646C129.448 27.3564 129.408 26.8408 129.408 26.2178V21.2334C129.408 20.5602 129.283 19.9694 129.032 19.4609C128.782 18.9453 128.434 18.5192 127.99 18.1826C127.546 17.846 127.02 17.5918 126.411 17.4199C125.81 17.248 125.158 17.1621 124.456 17.1621C123.675 17.1621 122.981 17.2624 122.372 17.4629C121.771 17.6562 121.262 17.9212 120.847 18.2578C120.424 18.5944 120.102 18.9847 119.88 19.4287C119.665 19.8727 119.558 20.3418 119.558 20.8359H122.544C122.544 20.6283 122.573 20.4385 122.63 20.2666C122.694 20.0947 122.791 19.9479 122.92 19.8262C123.063 19.6901 123.249 19.5863 123.479 19.5146C123.708 19.4359 123.98 19.3965 124.295 19.3965C124.653 19.3965 124.965 19.443 125.229 19.5361C125.502 19.6221 125.727 19.7474 125.906 19.9121C126.078 20.0697 126.207 20.2594 126.293 20.4814C126.379 20.6963 126.422 20.9398 126.422 21.2119V21.8994H124.757C123.897 21.8994 123.135 21.9782 122.469 22.1357C121.81 22.2861 121.255 22.5081 120.804 22.8018C120.302 23.124 119.926 23.5358 119.676 24.0371C119.425 24.5312 119.3 25.1006 119.3 25.7451C119.3 26.2464 119.4 26.7119 119.601 27.1416C119.801 27.5641 120.08 27.9294 120.438 28.2373C120.797 28.5452 121.223 28.7852 121.717 28.957C122.218 29.1289 122.766 29.2148 123.36 29.2148C123.726 29.2148 124.066 29.179 124.381 29.1074C124.696 29.043 124.986 28.9499 125.251 28.8281C125.509 28.7135 125.745 28.5775 125.96 28.4199C126.175 28.2624 126.365 28.0941 126.529 27.915C126.565 28.1227 126.608 28.3197 126.658 28.5059C126.708 28.6921 126.769 28.8568 126.841 29ZM123.994 26.9053C123.715 26.9053 123.468 26.873 123.253 26.8086C123.045 26.737 122.87 26.6439 122.727 26.5293C122.583 26.4076 122.472 26.2607 122.394 26.0889C122.322 25.9098 122.286 25.7165 122.286 25.5088C122.286 25.2438 122.336 25.0003 122.437 24.7783C122.537 24.5492 122.691 24.3522 122.898 24.1875C123.106 24.0299 123.375 23.9082 123.704 23.8223C124.034 23.7292 124.431 23.6826 124.896 23.6826H126.422V25.6807C126.336 25.8311 126.218 25.9814 126.067 26.1318C125.917 26.2751 125.738 26.404 125.53 26.5186C125.323 26.6331 125.09 26.7262 124.832 26.7979C124.574 26.8695 124.295 26.9053 123.994 26.9053ZM132.792 29H135.789V20.7393C135.889 20.5817 136 20.4385 136.122 20.3096C136.244 20.1807 136.38 20.0697 136.53 19.9766C136.716 19.8477 136.928 19.751 137.164 19.6865C137.408 19.6221 137.673 19.5898 137.959 19.5898C138.303 19.5898 138.611 19.6257 138.883 19.6973C139.155 19.7617 139.388 19.8799 139.581 20.0518C139.774 20.2236 139.921 20.46 140.021 20.7607C140.129 21.0544 140.183 21.4303 140.183 21.8887V29H143.169V21.8457C143.169 21.0007 143.069 20.2845 142.868 19.6973C142.675 19.1029 142.403 18.6159 142.052 18.2363C141.694 17.8639 141.271 17.5918 140.784 17.4199C140.297 17.248 139.76 17.1621 139.173 17.1621C138.715 17.1621 138.281 17.2266 137.873 17.3555C137.465 17.4844 137.089 17.6706 136.745 17.9141C136.545 18.0573 136.355 18.2184 136.176 18.3975C135.997 18.5765 135.832 18.7734 135.682 18.9883L135.499 17.377H132.792V29ZM150.377 24.1982L153.675 29H157.338L152.343 22.2217L156.726 17.377H153.138L149.926 20.9004L149.023 21.9316V12.5H146.037V29H149.023V25.4551L150.377 24.1982Z" fill="#5429CC"/>
</svg>
